<?xml version="1.0" encoding="utf-8"?>
<svg width="66" height="14" viewBox="0 0 52.367 14" fill="none" xmlns="http://www.w3.org/2000/svg">
  <g transform="matrix(0.024632, 0, 0, 0.024632, -0.279538, 0.847168)" style=""/>
  <g transform="matrix(0.024632, 0, 0, 0.024632, -0.279538, 0.847168)" style=""/>
  <g transform="matrix(0.024632, 0, 0, 0.024632, -0.279538, 0.847168)" style=""/>
  <g transform="matrix(0.024632, 0, 0, 0.024632, -0.279538, 0.847168)" style=""/>
  <g transform="matrix(0.024632, 0, 0, 0.024632, -0.279538, 0.847168)" style=""/>
  <g transform="matrix(0.024632, 0, 0, 0.024632, -0.279538, 0.847168)" style=""/>
  <g transform="matrix(0.024632, 0, 0, 0.024632, -0.279538, 0.847168)" style=""/>
  <g transform="matrix(0.024632, 0, 0, 0.024632, -0.279538, 0.847168)" style=""/>
  <g transform="matrix(0.024632, 0, 0, 0.024632, -0.279538, 0.847168)" style=""/>
  <g transform="matrix(0.024632, 0, 0, 0.024632, -0.279538, 0.847168)" style=""/>
  <g transform="matrix(0.024632, 0, 0, 0.024632, -0.279538, 0.847168)" style=""/>
  <g transform="matrix(0.024632, 0, 0, 0.024632, -0.279538, 0.847168)" style=""/>
  <g transform="matrix(0.024632, 0, 0, 0.024632, -0.279538, 0.847168)" style=""/>
  <g transform="matrix(0.024632, 0, 0, 0.024632, -0.279538, 0.847168)" style=""/>
  <g transform="matrix(0.024632, 0, 0, 0.024632, -0.279538, 0.847168)" style=""/>
  <path d="M 20.406 3.85 L 19.389 4.966 C 18.853 4.649 18.467 4.49 18.233 4.49 C 18.051 4.49 17.895 4.559 17.764 4.696 C 17.633 4.834 17.567 4.995 17.567 5.185 C 17.567 5.559 17.907 5.883 18.584 6.156 C 19.082 6.368 19.458 6.56 19.712 6.73 C 19.966 6.903 20.179 7.141 20.351 7.445 C 20.523 7.749 20.607 8.079 20.607 8.433 C 20.607 9.086 20.345 9.651 19.82 10.134 C 19.293 10.615 18.672 10.855 17.955 10.855 C 17.169 10.855 16.392 10.485 15.626 9.745 L 16.701 8.491 C 17.182 8.988 17.633 9.237 18.053 9.237 C 18.25 9.237 18.438 9.149 18.618 8.975 C 18.801 8.799 18.891 8.615 18.891 8.422 C 18.891 8.025 18.473 7.676 17.637 7.375 C 17.159 7.203 16.82 7.039 16.62 6.887 C 16.42 6.736 16.251 6.514 16.114 6.223 C 15.978 5.931 15.908 5.634 15.908 5.33 C 15.908 4.655 16.129 4.108 16.567 3.688 C 17.007 3.268 17.582 3.058 18.29 3.058 C 19.13 3.058 19.836 3.322 20.406 3.85 Z M 26.341 8.619 L 22.798 8.619 C 22.817 8.939 22.923 9.199 23.113 9.398 C 23.303 9.599 23.526 9.7 23.782 9.7 C 24.236 9.7 24.592 9.493 24.85 9.08 L 26.208 9.531 C 25.703 10.414 24.919 10.855 23.856 10.855 C 23.074 10.855 22.451 10.618 21.99 10.144 C 21.527 9.671 21.296 9.032 21.296 8.231 C 21.296 7.51 21.54 6.905 22.027 6.416 C 22.513 5.927 23.114 5.682 23.826 5.682 C 24.543 5.682 25.142 5.94 25.621 6.453 C 26.101 6.968 26.341 7.611 26.341 8.381 L 26.341 8.619 Z M 22.809 7.625 L 24.809 7.625 C 24.671 7.004 24.353 6.694 23.856 6.694 C 23.571 6.694 23.334 6.774 23.147 6.936 C 22.961 7.098 22.848 7.327 22.809 7.625 Z M 30.682 10.752 L 30.682 9.901 L 30.658 9.901 C 30.428 10.233 30.193 10.474 29.96 10.62 C 29.724 10.77 29.433 10.845 29.086 10.845 C 28.504 10.845 28.01 10.594 27.601 10.092 C 27.192 9.592 26.988 8.983 26.988 8.266 C 26.988 7.557 27.206 6.949 27.641 6.442 C 28.077 5.935 28.594 5.682 29.19 5.682 C 29.475 5.682 29.731 5.747 29.96 5.874 C 30.188 6 30.428 6.202 30.682 6.481 L 30.682 5.792 L 32.161 5.792 L 32.161 10.752 L 30.682 10.752 Z M 29.594 7.162 C 29.302 7.162 29.057 7.278 28.862 7.512 C 28.665 7.745 28.567 8.038 28.567 8.393 C 28.567 8.724 28.659 8.992 28.847 9.193 C 29.034 9.396 29.28 9.497 29.583 9.497 C 29.876 9.497 30.127 9.381 30.335 9.148 C 30.544 8.914 30.647 8.631 30.647 8.301 C 30.647 7.992 30.544 7.725 30.335 7.501 C 30.127 7.274 29.881 7.162 29.594 7.162 Z M 33.734 3.162 L 36.329 3.162 C 37.028 3.162 37.589 3.366 38.017 3.771 C 38.445 4.178 38.659 4.712 38.659 5.375 C 38.659 5.812 38.554 6.225 38.343 6.616 C 38.134 7.006 37.818 7.298 37.393 7.492 C 36.968 7.684 36.606 7.785 36.306 7.792 L 35.358 7.816 L 35.358 10.752 L 33.734 10.752 L 33.734 3.162 Z M 35.335 4.527 L 35.335 6.468 L 35.972 6.468 C 36.244 6.468 36.478 6.369 36.673 6.174 C 36.867 5.977 36.966 5.743 36.966 5.474 C 36.966 5.166 36.855 4.927 36.636 4.757 C 36.416 4.586 36.105 4.503 35.699 4.503 L 35.335 4.527 Z M 39.424 8.277 C 39.424 7.51 39.668 6.884 40.158 6.399 C 40.647 5.913 41.276 5.671 42.043 5.671 C 42.757 5.671 43.353 5.918 43.837 6.414 C 44.321 6.909 44.563 7.523 44.563 8.254 C 44.563 9.002 44.321 9.622 43.837 10.116 C 43.353 10.609 42.748 10.855 42.019 10.855 C 41.199 10.855 40.56 10.594 40.106 10.072 C 39.651 9.55 39.424 8.952 39.424 8.277 Z M 43.106 8.277 C 43.106 7.942 42.997 7.649 42.777 7.399 C 42.557 7.148 42.301 7.022 42.008 7.022 C 41.703 7.022 41.442 7.141 41.222 7.375 C 41.002 7.611 40.892 7.891 40.892 8.22 C 40.892 8.577 41.001 8.882 41.219 9.134 C 41.436 9.382 41.699 9.508 42.008 9.508 C 42.301 9.508 42.557 9.387 42.777 9.142 C 42.997 8.897 43.106 8.609 43.106 8.277 Z M 46.895 5.78 L 46.895 6.514 L 46.918 6.514 C 47.065 6.268 47.234 6.072 47.43 5.927 C 47.625 5.783 47.804 5.711 47.971 5.711 C 48.071 5.711 48.162 5.719 48.242 5.734 L 48.242 7.352 C 48.119 7.329 47.997 7.319 47.878 7.319 C 47.574 7.319 47.337 7.424 47.17 7.638 C 47.002 7.852 46.918 8.152 46.918 8.537 L 46.918 10.752 L 45.415 10.752 L 45.415 5.78 L 46.895 5.78 Z M 49.484 4.076 L 50.964 4.076 L 50.964 5.78 L 51.674 5.78 L 51.674 7.138 L 50.964 7.138 L 50.964 10.752 L 49.484 10.752 L 49.484 7.138 L 48.919 7.138 L 48.919 5.78 L 49.484 5.78 L 49.484 4.076 Z" style="white-space: pre; fill: rgb(82, 82, 82);"/>
  <path id="path0" d="M 1.123 3.887 C 1.123 3.899 1.13 3.908 1.137 3.908 C 1.145 3.908 1.151 3.899 1.151 3.887 C 1.151 3.875 1.145 3.866 1.137 3.866 C 1.13 3.866 1.123 3.875 1.123 3.887 M 4.978 8.761 C 4.12 9.615 3.412 10.32 3.405 10.328 C 3.369 10.37 1.631 12.099 1.094 12.629 C 0.271 13.44 0.267 13.445 0.266 13.482 L 0.266 13.513 L 3.396 13.513 L 6.525 13.513 L 6.535 13.45 C 6.543 13.387 6.548 7.208 6.539 7.208 C 6.537 7.208 5.834 7.907 4.978 8.761" stroke="none" fill="#2ccce4" fill-rule="evenodd" style=""/>
  <path id="path1" d="M 6.291 4.049 C 5.562 4.111 4.913 4.4 4.383 4.899 C 3.837 5.413 3.511 6.07 3.412 6.857 C 3.392 7.022 3.392 10.312 3.412 10.312 C 3.436 10.312 9.662 4.08 9.662 4.056 C 9.662 4.033 6.552 4.026 6.291 4.049 M 8.636 13.261 C 8.636 13.28 8.645 13.289 8.664 13.289 C 8.683 13.289 8.692 13.28 8.692 13.261 C 8.692 13.242 8.683 13.233 8.664 13.233 C 8.645 13.233 8.636 13.242 8.636 13.261 M 0.07 13.325 C 0.07 13.371 0.117 13.367 0.123 13.32 C 0.127 13.296 0.121 13.289 0.099 13.289 C 0.077 13.289 0.07 13.298 0.07 13.325 M 0.161 13.373 C 0.149 13.394 0.166 13.415 0.197 13.415 C 0.215 13.415 0.224 13.406 0.224 13.387 C 0.224 13.357 0.177 13.346 0.161 13.373 M 0 13.464 C 0 13.507 0.004 13.513 0.035 13.513 C 0.065 13.513 0.07 13.507 0.07 13.464 C 0.07 13.421 0.065 13.415 0.035 13.415 C 0.004 13.415 0 13.421 0 13.464 M 6.375 13.548 C 6.375 13.573 6.382 13.582 6.403 13.58 C 6.422 13.578 6.431 13.567 6.431 13.545 C 6.431 13.523 6.423 13.513 6.403 13.513 C 6.383 13.513 6.375 13.523 6.375 13.548 M 6.502 13.549 C 6.502 13.574 6.509 13.584 6.53 13.584 C 6.55 13.584 6.558 13.574 6.558 13.549 C 6.558 13.523 6.55 13.513 6.53 13.513 C 6.509 13.513 6.502 13.523 6.502 13.549" stroke="none" fill="#fbfbfb" fill-rule="evenodd" style=""/>
  <path id="path2" d="M 6.249 0.861 C 6.249 0.87 6.172 0.875 6.044 0.875 C 5.876 0.875 5.839 0.879 5.832 0.895 C 5.826 0.912 5.799 0.917 5.714 0.917 C 5.649 0.917 5.603 0.922 5.603 0.931 C 5.603 0.939 5.563 0.945 5.511 0.945 C 5.46 0.945 5.421 0.951 5.421 0.959 C 5.421 0.967 5.378 0.973 5.322 0.973 C 5.266 0.973 5.224 0.979 5.224 0.987 C 5.224 0.995 5.198 1.001 5.167 1.001 C 5.129 1.001 5.108 1.008 5.102 1.022 C 5.097 1.036 5.074 1.043 5.032 1.043 C 4.998 1.043 4.971 1.05 4.971 1.057 C 4.971 1.065 4.942 1.072 4.908 1.072 C 4.873 1.072 4.845 1.078 4.845 1.085 C 4.845 1.092 4.823 1.099 4.797 1.099 C 4.771 1.099 4.747 1.106 4.744 1.113 C 4.741 1.121 4.712 1.128 4.68 1.13 C 4.64 1.131 4.62 1.139 4.62 1.151 C 4.62 1.163 4.602 1.169 4.571 1.169 C 4.544 1.169 4.521 1.176 4.521 1.183 C 4.521 1.191 4.5 1.197 4.474 1.197 C 4.447 1.197 4.423 1.204 4.421 1.211 C 4.418 1.22 4.398 1.227 4.378 1.229 C 4.356 1.23 4.339 1.24 4.339 1.25 C 4.339 1.261 4.32 1.267 4.29 1.267 C 4.262 1.267 4.241 1.274 4.241 1.282 C 4.241 1.29 4.225 1.296 4.205 1.296 C 4.186 1.296 4.171 1.302 4.171 1.309 C 4.171 1.318 4.152 1.324 4.129 1.324 C 4.105 1.324 4.086 1.33 4.086 1.337 C 4.086 1.346 4.07 1.352 4.051 1.352 C 4.029 1.352 4.016 1.36 4.016 1.373 C 4.016 1.386 4.002 1.394 3.981 1.394 C 3.961 1.394 3.945 1.4 3.945 1.408 C 3.945 1.416 3.933 1.422 3.917 1.422 C 3.903 1.422 3.889 1.429 3.889 1.437 C 3.889 1.444 3.874 1.451 3.856 1.451 C 3.837 1.451 3.819 1.456 3.817 1.465 C 3.814 1.472 3.795 1.479 3.774 1.481 C 3.753 1.484 3.733 1.493 3.728 1.503 C 3.725 1.512 3.71 1.521 3.696 1.521 C 3.682 1.521 3.662 1.533 3.651 1.549 C 3.639 1.564 3.616 1.577 3.599 1.577 C 3.581 1.577 3.567 1.583 3.567 1.591 C 3.567 1.599 3.554 1.605 3.539 1.605 C 3.523 1.605 3.511 1.614 3.511 1.625 C 3.511 1.639 3.497 1.647 3.475 1.647 C 3.456 1.647 3.441 1.653 3.441 1.661 C 3.441 1.669 3.43 1.675 3.417 1.675 C 3.404 1.675 3.379 1.691 3.362 1.71 C 3.344 1.729 3.319 1.745 3.308 1.745 C 3.295 1.745 3.285 1.752 3.285 1.759 C 3.285 1.767 3.271 1.773 3.253 1.773 C 3.236 1.773 3.213 1.786 3.201 1.801 C 3.191 1.817 3.17 1.829 3.156 1.829 C 3.142 1.829 3.127 1.839 3.122 1.851 C 3.118 1.862 3.104 1.871 3.091 1.871 C 3.078 1.871 3.058 1.885 3.047 1.899 C 3.035 1.915 3.012 1.927 2.994 1.927 C 2.976 1.927 2.964 1.934 2.969 1.942 C 2.974 1.95 2.969 1.956 2.956 1.956 C 2.945 1.956 2.935 1.963 2.935 1.971 C 2.935 1.993 2.898 2.026 2.872 2.026 C 2.859 2.026 2.832 2.042 2.813 2.062 C 2.794 2.082 2.768 2.095 2.757 2.091 C 2.747 2.087 2.738 2.09 2.738 2.097 C 2.738 2.116 2.673 2.181 2.654 2.181 C 2.646 2.181 2.639 2.19 2.639 2.201 C 2.639 2.213 2.629 2.223 2.615 2.223 C 2.601 2.223 2.581 2.235 2.569 2.251 C 2.559 2.267 2.544 2.279 2.537 2.279 C 2.523 2.279 2.485 2.315 2.485 2.328 C 2.485 2.346 2.445 2.377 2.422 2.377 C 2.398 2.377 2.331 2.438 2.331 2.461 C 2.331 2.469 2.323 2.475 2.315 2.475 C 2.298 2.475 2.205 2.573 2.205 2.591 C 2.205 2.597 2.198 2.602 2.19 2.602 C 2.171 2.602 2.106 2.667 2.106 2.686 C 2.106 2.694 2.092 2.701 2.077 2.701 C 2.059 2.701 2.045 2.711 2.04 2.729 C 2.035 2.744 2.021 2.757 2.006 2.757 C 1.988 2.757 1.979 2.767 1.979 2.791 C 1.979 2.811 1.974 2.827 1.969 2.827 C 1.95 2.827 1.853 2.92 1.853 2.937 C 1.853 2.946 1.847 2.953 1.841 2.953 C 1.818 2.953 1.727 3.057 1.727 3.083 C 1.727 3.097 1.719 3.107 1.709 3.107 C 1.7 3.107 1.679 3.124 1.664 3.144 C 1.615 3.209 1.591 3.234 1.574 3.234 C 1.565 3.234 1.559 3.247 1.559 3.262 C 1.559 3.278 1.536 3.313 1.509 3.34 C 1.482 3.367 1.46 3.396 1.46 3.404 C 1.46 3.413 1.441 3.436 1.417 3.459 C 1.395 3.48 1.375 3.511 1.375 3.527 C 1.375 3.544 1.369 3.557 1.361 3.557 C 1.336 3.557 1.305 3.595 1.305 3.627 C 1.305 3.644 1.299 3.653 1.291 3.649 C 1.284 3.644 1.277 3.647 1.277 3.655 C 1.277 3.676 1.242 3.711 1.223 3.711 C 1.214 3.711 1.207 3.727 1.207 3.747 C 1.207 3.766 1.2 3.781 1.193 3.781 C 1.186 3.781 1.179 3.795 1.179 3.809 C 1.179 3.825 1.173 3.837 1.165 3.837 C 1.158 3.837 1.151 3.851 1.151 3.866 C 1.151 3.898 1.12 3.936 1.096 3.936 C 1.087 3.936 1.081 3.949 1.081 3.965 C 1.081 3.979 1.075 3.993 1.067 3.993 C 1.059 3.993 1.053 4.008 1.053 4.027 C 1.053 4.046 1.046 4.063 1.039 4.063 C 1.031 4.063 1.025 4.075 1.025 4.092 C 1.025 4.122 0.994 4.161 0.969 4.161 C 0.961 4.161 0.955 4.173 0.955 4.189 C 0.955 4.205 0.948 4.217 0.941 4.217 C 0.932 4.217 0.927 4.233 0.927 4.252 C 0.927 4.271 0.92 4.287 0.913 4.287 C 0.905 4.287 0.899 4.299 0.899 4.314 C 0.899 4.328 0.889 4.344 0.877 4.348 C 0.865 4.353 0.856 4.37 0.856 4.385 C 0.856 4.401 0.85 4.413 0.842 4.413 C 0.835 4.413 0.828 4.426 0.828 4.441 C 0.828 4.455 0.822 4.472 0.814 4.477 C 0.806 4.482 0.8 4.498 0.8 4.513 C 0.8 4.528 0.794 4.54 0.786 4.54 C 0.778 4.54 0.772 4.562 0.772 4.589 C 0.772 4.623 0.766 4.638 0.751 4.638 C 0.739 4.638 0.73 4.651 0.73 4.667 C 0.73 4.682 0.724 4.695 0.715 4.695 C 0.708 4.695 0.701 4.71 0.701 4.729 C 0.701 4.748 0.696 4.765 0.688 4.765 C 0.68 4.765 0.673 4.777 0.673 4.793 C 0.673 4.808 0.667 4.821 0.66 4.821 C 0.652 4.821 0.645 4.843 0.645 4.87 C 0.645 4.904 0.639 4.919 0.625 4.919 C 0.61 4.919 0.603 4.934 0.603 4.969 C 0.603 4.995 0.597 5.017 0.589 5.017 C 0.582 5.017 0.575 5.033 0.575 5.053 C 0.575 5.072 0.568 5.087 0.561 5.087 C 0.554 5.087 0.547 5.115 0.547 5.149 C 0.547 5.191 0.54 5.214 0.526 5.219 C 0.514 5.224 0.505 5.243 0.505 5.262 C 0.505 5.281 0.498 5.3 0.491 5.305 C 0.483 5.31 0.477 5.332 0.477 5.356 C 0.477 5.38 0.471 5.394 0.463 5.389 C 0.455 5.384 0.449 5.408 0.449 5.452 C 0.449 5.491 0.443 5.523 0.435 5.523 C 0.427 5.523 0.421 5.551 0.421 5.586 C 0.421 5.633 0.415 5.649 0.399 5.649 C 0.384 5.649 0.379 5.666 0.379 5.713 C 0.379 5.747 0.372 5.776 0.365 5.776 C 0.357 5.776 0.351 5.804 0.351 5.839 C 0.351 5.874 0.344 5.902 0.337 5.902 C 0.328 5.902 0.323 5.944 0.323 6 C 0.323 6.057 0.317 6.099 0.309 6.099 C 0.3 6.099 0.295 6.141 0.295 6.197 C 0.295 6.275 0.29 6.295 0.273 6.295 C 0.256 6.295 0.252 6.318 0.252 6.422 C 0.252 6.497 0.247 6.548 0.238 6.548 C 0.229 6.548 0.224 7.719 0.224 10.03 C 0.224 13.117 0.227 13.513 0.245 13.513 C 0.258 13.513 0.266 13.501 0.266 13.482 C 0.267 13.445 0.271 13.44 1.094 12.629 C 1.427 12.3 2.082 11.653 2.549 11.189 L 3.398 10.346 L 3.398 8.626 C 3.399 6.825 3.398 6.831 3.46 6.527 C 3.656 5.569 4.39 4.673 5.287 4.299 C 5.554 4.186 5.733 4.132 6.008 4.08 L 6.2 4.043 L 7.926 4.038 C 9.153 4.035 9.656 4.037 9.667 4.048 C 9.677 4.059 9.24 4.503 8.113 5.625 L 6.544 7.187 L 6.543 10.249 C 6.543 11.932 6.54 13.355 6.537 13.412 L 6.53 13.513 L 6.804 13.513 C 6.977 13.513 7.077 13.508 7.077 13.5 C 7.077 13.491 7.134 13.485 7.218 13.485 C 7.333 13.485 7.358 13.482 7.358 13.464 C 7.358 13.448 7.38 13.443 7.471 13.443 C 7.536 13.443 7.583 13.438 7.583 13.43 C 7.583 13.421 7.623 13.415 7.674 13.415 C 7.726 13.415 7.766 13.409 7.766 13.401 C 7.766 13.393 7.803 13.387 7.85 13.387 C 7.897 13.387 7.934 13.381 7.934 13.373 C 7.934 13.365 7.962 13.359 7.997 13.359 C 8.044 13.359 8.06 13.354 8.06 13.338 C 8.06 13.322 8.077 13.317 8.124 13.317 C 8.158 13.317 8.186 13.31 8.186 13.303 C 8.186 13.295 8.215 13.289 8.25 13.289 C 8.285 13.289 8.313 13.282 8.313 13.275 C 8.313 13.267 8.335 13.261 8.362 13.261 C 8.389 13.261 8.412 13.255 8.412 13.247 C 8.412 13.239 8.44 13.233 8.474 13.233 C 8.521 13.233 8.538 13.227 8.538 13.211 C 8.538 13.2 8.55 13.19 8.566 13.19 C 8.582 13.19 8.594 13.185 8.594 13.176 C 8.594 13.169 8.616 13.162 8.643 13.162 C 8.67 13.162 8.692 13.156 8.692 13.148 C 8.692 13.14 8.714 13.134 8.742 13.134 C 8.768 13.134 8.79 13.128 8.79 13.12 C 8.79 13.113 8.813 13.106 8.84 13.106 C 8.874 13.106 8.888 13.1 8.888 13.086 C 8.888 13.073 8.901 13.064 8.917 13.064 C 8.932 13.064 8.945 13.058 8.945 13.05 C 8.945 13.043 8.961 13.036 8.98 13.036 C 9 13.036 9.016 13.03 9.016 13.022 C 9.016 13.015 9.037 13.008 9.065 13.008 C 9.099 13.008 9.114 13.002 9.114 12.987 C 9.114 12.975 9.126 12.965 9.142 12.965 C 9.157 12.965 9.17 12.959 9.17 12.952 C 9.17 12.945 9.185 12.938 9.205 12.938 C 9.224 12.938 9.24 12.931 9.24 12.924 C 9.24 12.916 9.252 12.91 9.268 12.91 C 9.284 12.91 9.296 12.903 9.296 12.895 C 9.296 12.888 9.312 12.882 9.332 12.882 C 9.353 12.882 9.366 12.874 9.366 12.86 C 9.366 12.849 9.379 12.84 9.394 12.84 C 9.41 12.84 9.422 12.833 9.422 12.825 C 9.422 12.818 9.439 12.812 9.458 12.812 C 9.477 12.812 9.492 12.805 9.492 12.797 C 9.492 12.789 9.506 12.783 9.52 12.783 C 9.536 12.783 9.549 12.777 9.549 12.77 C 9.549 12.761 9.565 12.755 9.584 12.755 C 9.605 12.755 9.619 12.747 9.619 12.734 C 9.619 12.723 9.632 12.713 9.648 12.713 C 9.663 12.713 9.676 12.707 9.676 12.7 C 9.676 12.691 9.685 12.685 9.696 12.685 C 9.708 12.685 9.718 12.678 9.718 12.671 C 9.718 12.663 9.73 12.657 9.746 12.657 C 9.761 12.657 9.774 12.651 9.774 12.643 C 9.774 12.635 9.789 12.629 9.809 12.629 C 9.828 12.629 9.844 12.622 9.844 12.614 C 9.844 12.589 9.882 12.558 9.913 12.558 C 9.929 12.558 9.942 12.553 9.942 12.544 C 9.942 12.537 9.955 12.53 9.97 12.53 C 9.986 12.53 9.998 12.524 9.998 12.516 C 9.998 12.492 10.036 12.46 10.064 12.46 C 10.078 12.46 10.1 12.448 10.11 12.432 C 10.122 12.417 10.146 12.404 10.163 12.404 C 10.181 12.404 10.195 12.398 10.195 12.389 C 10.195 12.366 10.261 12.306 10.286 12.306 C 10.309 12.306 10.35 12.274 10.35 12.256 C 10.35 12.239 10.39 12.208 10.412 12.208 C 10.437 12.208 10.504 12.147 10.504 12.124 C 10.504 12.115 10.513 12.11 10.525 12.11 C 10.537 12.11 10.546 12.103 10.546 12.095 C 10.546 12.087 10.558 12.081 10.574 12.081 C 10.59 12.081 10.602 12.075 10.602 12.067 C 10.602 12.059 10.609 12.053 10.618 12.053 C 10.633 12.053 10.672 12.018 10.672 12.004 C 10.672 11.99 10.741 11.926 10.756 11.926 C 10.764 11.926 10.77 11.92 10.77 11.912 C 10.77 11.889 10.808 11.856 10.833 11.856 C 10.845 11.856 10.855 11.851 10.855 11.842 C 10.855 11.835 10.862 11.828 10.87 11.828 C 10.886 11.828 10.926 11.794 10.926 11.78 C 10.926 11.768 10.992 11.702 11.003 11.702 C 11.015 11.702 11.052 11.664 11.052 11.653 C 11.052 11.641 11.089 11.604 11.1 11.604 C 11.111 11.604 11.178 11.537 11.178 11.526 C 11.178 11.512 11.217 11.478 11.233 11.478 C 11.242 11.478 11.248 11.464 11.248 11.449 C 11.248 11.419 11.334 11.322 11.36 11.322 C 11.368 11.322 11.374 11.316 11.374 11.307 C 11.374 11.299 11.393 11.275 11.416 11.252 C 11.44 11.231 11.459 11.2 11.459 11.184 C 11.459 11.167 11.465 11.154 11.473 11.154 C 11.499 11.154 11.557 11.087 11.557 11.057 C 11.557 11.04 11.564 11.028 11.572 11.028 C 11.595 11.028 11.656 10.962 11.656 10.936 C 11.656 10.913 11.687 10.873 11.704 10.873 C 11.723 10.873 11.754 10.832 11.754 10.808 C 11.754 10.793 11.766 10.772 11.782 10.761 C 11.797 10.75 11.81 10.727 11.81 10.709 C 11.81 10.691 11.817 10.677 11.825 10.677 C 11.847 10.677 11.88 10.64 11.88 10.615 C 11.88 10.602 11.886 10.592 11.894 10.592 C 11.902 10.592 11.908 10.579 11.908 10.563 C 11.908 10.532 11.939 10.494 11.964 10.494 C 11.972 10.494 11.978 10.479 11.978 10.462 C 11.978 10.445 11.991 10.422 12.006 10.41 C 12.022 10.398 12.034 10.375 12.034 10.358 C 12.034 10.338 12.043 10.325 12.055 10.325 C 12.067 10.325 12.077 10.313 12.077 10.298 C 12.077 10.282 12.083 10.27 12.091 10.27 C 12.099 10.27 12.105 10.254 12.105 10.234 C 12.105 10.215 12.111 10.2 12.119 10.2 C 12.126 10.2 12.133 10.186 12.133 10.172 C 12.133 10.156 12.139 10.143 12.147 10.143 C 12.154 10.143 12.161 10.127 12.161 10.108 C 12.161 10.086 12.169 10.073 12.182 10.073 C 12.194 10.073 12.203 10.06 12.203 10.044 C 12.203 10.03 12.209 10.016 12.217 10.016 C 12.225 10.016 12.231 10.001 12.231 9.982 C 12.231 9.963 12.237 9.946 12.246 9.946 C 12.253 9.946 12.259 9.934 12.259 9.918 C 12.259 9.903 12.265 9.89 12.274 9.89 C 12.281 9.89 12.288 9.874 12.288 9.856 C 12.288 9.833 12.295 9.82 12.308 9.82 C 12.32 9.82 12.329 9.808 12.329 9.792 C 12.329 9.776 12.336 9.764 12.344 9.764 C 12.351 9.764 12.358 9.742 12.358 9.714 C 12.358 9.688 12.364 9.666 12.371 9.666 C 12.379 9.666 12.386 9.65 12.386 9.63 C 12.386 9.609 12.394 9.596 12.407 9.596 C 12.418 9.596 12.428 9.583 12.428 9.568 C 12.428 9.552 12.434 9.54 12.442 9.54 C 12.449 9.54 12.456 9.517 12.456 9.49 C 12.456 9.463 12.462 9.441 12.47 9.441 C 12.478 9.441 12.484 9.419 12.484 9.392 C 12.484 9.365 12.491 9.342 12.498 9.342 C 12.506 9.342 12.512 9.321 12.512 9.294 C 12.512 9.259 12.518 9.244 12.533 9.244 C 12.545 9.244 12.554 9.232 12.554 9.216 C 12.554 9.201 12.561 9.188 12.568 9.188 C 12.576 9.188 12.582 9.166 12.582 9.139 C 12.582 9.112 12.588 9.09 12.596 9.09 C 12.604 9.09 12.61 9.062 12.61 9.026 C 12.61 8.992 12.617 8.964 12.624 8.964 C 12.632 8.964 12.638 8.935 12.638 8.9 C 12.638 8.854 12.644 8.837 12.66 8.837 C 12.674 8.837 12.68 8.823 12.68 8.788 C 12.68 8.761 12.686 8.739 12.695 8.739 C 12.702 8.739 12.709 8.705 12.709 8.662 C 12.709 8.619 12.715 8.585 12.723 8.585 C 12.731 8.585 12.737 8.556 12.737 8.521 C 12.737 8.486 12.743 8.458 12.751 8.458 C 12.759 8.458 12.765 8.421 12.765 8.374 C 12.765 8.309 12.77 8.29 12.786 8.29 C 12.803 8.29 12.807 8.267 12.807 8.177 C 12.807 8.111 12.813 8.065 12.821 8.065 C 12.829 8.065 12.836 8.013 12.836 7.938 C 12.836 7.863 12.841 7.812 12.849 7.812 C 12.859 7.812 12.863 7.592 12.863 7.18 C 12.863 6.768 12.859 6.548 12.849 6.548 C 12.841 6.548 12.836 6.497 12.836 6.422 C 12.836 6.346 12.829 6.295 12.821 6.295 C 12.813 6.295 12.807 6.253 12.807 6.197 C 12.807 6.119 12.803 6.099 12.786 6.099 C 12.77 6.099 12.765 6.078 12.765 6 C 12.765 5.944 12.759 5.902 12.751 5.902 C 12.743 5.902 12.737 5.874 12.737 5.839 C 12.737 5.804 12.731 5.776 12.723 5.776 C 12.715 5.776 12.709 5.747 12.709 5.713 C 12.709 5.677 12.702 5.649 12.695 5.649 C 12.686 5.649 12.68 5.621 12.68 5.586 C 12.68 5.539 12.675 5.523 12.66 5.523 C 12.644 5.523 12.638 5.507 12.638 5.46 C 12.638 5.425 12.632 5.397 12.624 5.397 C 12.617 5.397 12.61 5.375 12.61 5.347 C 12.61 5.32 12.604 5.298 12.596 5.298 C 12.588 5.298 12.582 5.28 12.582 5.257 C 12.582 5.233 12.576 5.214 12.568 5.214 C 12.561 5.214 12.554 5.191 12.554 5.165 C 12.554 5.13 12.548 5.115 12.533 5.115 C 12.518 5.115 12.512 5.101 12.512 5.066 C 12.512 5.04 12.506 5.017 12.498 5.017 C 12.491 5.017 12.484 4.995 12.484 4.969 C 12.484 4.941 12.478 4.919 12.47 4.919 C 12.462 4.919 12.456 4.907 12.456 4.891 C 12.456 4.875 12.449 4.863 12.442 4.863 C 12.434 4.863 12.428 4.844 12.428 4.82 C 12.428 4.795 12.419 4.774 12.407 4.77 C 12.395 4.766 12.386 4.747 12.386 4.728 C 12.386 4.71 12.379 4.695 12.371 4.695 C 12.364 4.695 12.358 4.672 12.358 4.645 C 12.358 4.618 12.351 4.597 12.344 4.597 C 12.336 4.597 12.329 4.583 12.329 4.568 C 12.329 4.552 12.32 4.54 12.308 4.54 C 12.295 4.54 12.288 4.526 12.288 4.505 C 12.288 4.485 12.281 4.469 12.274 4.469 C 12.265 4.469 12.259 4.45 12.259 4.427 C 12.259 4.404 12.253 4.385 12.246 4.385 C 12.237 4.385 12.231 4.376 12.231 4.364 C 12.231 4.353 12.225 4.343 12.217 4.343 C 12.209 4.343 12.203 4.331 12.203 4.315 C 12.203 4.299 12.194 4.287 12.182 4.287 C 12.169 4.287 12.161 4.274 12.161 4.252 C 12.161 4.233 12.154 4.217 12.147 4.217 C 12.139 4.217 12.133 4.205 12.133 4.189 C 12.133 4.173 12.126 4.161 12.119 4.161 C 12.111 4.161 12.105 4.145 12.105 4.125 C 12.105 4.106 12.099 4.091 12.091 4.091 C 12.083 4.091 12.077 4.078 12.077 4.063 C 12.077 4.047 12.07 4.035 12.061 4.035 C 12.039 4.035 12.007 3.991 12.007 3.96 C 12.006 3.947 12.001 3.936 11.992 3.936 C 11.985 3.936 11.978 3.92 11.978 3.901 C 11.978 3.881 11.972 3.866 11.964 3.866 C 11.94 3.866 11.908 3.829 11.908 3.804 C 11.908 3.791 11.902 3.781 11.894 3.781 C 11.886 3.781 11.88 3.772 11.88 3.761 C 11.88 3.749 11.874 3.739 11.866 3.739 C 11.859 3.739 11.852 3.727 11.852 3.711 C 11.852 3.696 11.842 3.683 11.831 3.683 C 11.819 3.683 11.81 3.675 11.81 3.665 C 11.81 3.655 11.797 3.639 11.782 3.627 C 11.766 3.616 11.754 3.596 11.754 3.582 C 11.754 3.568 11.747 3.557 11.74 3.557 C 11.732 3.557 11.726 3.541 11.726 3.521 C 11.726 3.502 11.718 3.487 11.711 3.487 C 11.688 3.487 11.628 3.42 11.628 3.395 C 11.628 3.37 11.595 3.333 11.572 3.333 C 11.564 3.333 11.557 3.319 11.557 3.304 C 11.557 3.276 11.5 3.205 11.478 3.205 C 11.463 3.205 11.431 3.158 11.431 3.135 C 11.431 3.124 11.418 3.105 11.402 3.093 C 11.388 3.083 11.374 3.065 11.374 3.055 C 11.374 3.045 11.368 3.037 11.36 3.037 C 11.341 3.037 11.248 2.945 11.248 2.925 C 11.248 2.918 11.238 2.911 11.227 2.911 C 11.215 2.911 11.206 2.899 11.206 2.883 C 11.206 2.864 11.197 2.855 11.178 2.855 C 11.159 2.855 11.15 2.846 11.15 2.825 C 11.15 2.799 11.12 2.757 11.101 2.757 C 11.096 2.757 11.058 2.721 11.017 2.679 C 10.976 2.637 10.931 2.602 10.919 2.602 C 10.907 2.602 10.897 2.592 10.897 2.581 C 10.897 2.569 10.891 2.559 10.883 2.559 C 10.864 2.559 10.77 2.467 10.77 2.448 C 10.77 2.44 10.764 2.433 10.756 2.433 C 10.747 2.433 10.722 2.414 10.7 2.391 C 10.679 2.368 10.648 2.349 10.632 2.349 C 10.61 2.349 10.602 2.34 10.602 2.314 C 10.602 2.288 10.595 2.279 10.574 2.279 C 10.558 2.279 10.546 2.272 10.546 2.265 C 10.546 2.257 10.539 2.251 10.531 2.251 C 10.511 2.251 10.476 2.215 10.476 2.196 C 10.476 2.187 10.464 2.181 10.448 2.181 C 10.432 2.181 10.42 2.174 10.42 2.167 C 10.42 2.159 10.413 2.153 10.404 2.153 C 10.385 2.153 10.35 2.117 10.35 2.097 C 10.35 2.09 10.341 2.087 10.332 2.09 C 10.322 2.094 10.29 2.074 10.261 2.047 C 10.233 2.021 10.202 1.998 10.195 1.998 C 10.186 1.998 10.165 1.982 10.147 1.963 C 10.129 1.943 10.104 1.927 10.091 1.927 C 10.079 1.927 10.068 1.922 10.068 1.914 C 10.068 1.906 10.059 1.899 10.048 1.899 C 10.036 1.899 10.026 1.894 10.026 1.885 C 10.026 1.878 10.014 1.871 9.998 1.871 C 9.983 1.871 9.97 1.862 9.97 1.851 C 9.97 1.838 9.958 1.829 9.938 1.829 C 9.921 1.829 9.898 1.817 9.886 1.801 C 9.874 1.786 9.855 1.773 9.841 1.773 C 9.827 1.773 9.816 1.767 9.816 1.759 C 9.816 1.752 9.807 1.745 9.794 1.745 C 9.783 1.745 9.774 1.736 9.774 1.724 C 9.774 1.713 9.761 1.703 9.746 1.703 C 9.73 1.703 9.718 1.697 9.718 1.689 C 9.718 1.682 9.702 1.675 9.682 1.675 C 9.663 1.675 9.648 1.669 9.648 1.661 C 9.648 1.653 9.634 1.647 9.619 1.647 C 9.604 1.647 9.591 1.64 9.591 1.633 C 9.591 1.625 9.575 1.616 9.556 1.611 C 9.537 1.606 9.52 1.596 9.52 1.589 C 9.52 1.583 9.508 1.577 9.492 1.577 C 9.478 1.577 9.464 1.57 9.464 1.563 C 9.464 1.554 9.452 1.549 9.435 1.549 C 9.405 1.549 9.366 1.518 9.366 1.494 C 9.366 1.486 9.358 1.483 9.347 1.487 C 9.336 1.491 9.318 1.484 9.306 1.472 C 9.294 1.46 9.265 1.451 9.241 1.451 C 9.217 1.451 9.198 1.444 9.198 1.437 C 9.198 1.429 9.185 1.422 9.17 1.422 C 9.154 1.422 9.142 1.416 9.142 1.408 C 9.142 1.4 9.125 1.394 9.106 1.394 C 9.085 1.394 9.072 1.386 9.072 1.373 C 9.072 1.361 9.059 1.352 9.044 1.352 C 9.028 1.352 9.016 1.346 9.016 1.337 C 9.016 1.33 8.993 1.324 8.966 1.324 C 8.939 1.324 8.917 1.318 8.917 1.309 C 8.917 1.302 8.904 1.296 8.888 1.296 C 8.874 1.296 8.86 1.29 8.86 1.282 C 8.86 1.274 8.839 1.267 8.813 1.267 C 8.784 1.267 8.762 1.26 8.757 1.247 C 8.752 1.234 8.732 1.225 8.707 1.225 C 8.683 1.225 8.664 1.22 8.664 1.212 C 8.664 1.204 8.643 1.197 8.615 1.197 C 8.588 1.197 8.566 1.191 8.566 1.183 C 8.566 1.176 8.554 1.169 8.539 1.169 C 8.524 1.169 8.51 1.162 8.506 1.153 C 8.503 1.143 8.488 1.135 8.473 1.134 C 8.381 1.129 8.369 1.126 8.377 1.113 C 8.382 1.105 8.365 1.099 8.335 1.099 C 8.308 1.099 8.285 1.092 8.285 1.085 C 8.285 1.078 8.256 1.072 8.222 1.072 C 8.187 1.072 8.158 1.065 8.158 1.057 C 8.158 1.05 8.131 1.043 8.097 1.043 C 8.055 1.043 8.033 1.036 8.027 1.022 C 8.022 1.008 8 1.001 7.964 1.001 C 7.933 1.001 7.903 0.995 7.899 0.987 C 7.894 0.979 7.85 0.973 7.799 0.973 C 7.748 0.973 7.709 0.967 7.709 0.959 C 7.709 0.951 7.667 0.945 7.611 0.945 C 7.555 0.945 7.513 0.939 7.513 0.931 C 7.513 0.922 7.461 0.917 7.386 0.917 C 7.29 0.917 7.26 0.913 7.26 0.898 C 7.26 0.884 7.22 0.879 7.088 0.876 C 6.993 0.875 6.913 0.868 6.911 0.861 C 6.905 0.842 6.249 0.842 6.249 0.861" stroke="none" fill="#3874e6" fill-rule="evenodd" style=""/>
</svg>